<svg width="500" height="433" viewBox="0 0 500 433" fill="none" xmlns="http://www.w3.org/2000/svg">
<path d="M8.66038 428L250 9.99978L491.34 428H8.66038Z" fill="url(#paint0_linear_2_6)" stroke="#8B0101" stroke-width="10"/>
<path d="M171.979 267H153.842L177.399 197.182H199.865L223.422 267H205.286L188.888 214.773H188.342L171.979 267ZM169.558 239.523H207.467V252.341H169.558V239.523ZM237.659 267V197.182H254.534V253.295H283.58V267H237.659ZM299.035 267V197.182H315.91V253.295H344.956V267H299.035ZM217.169 313.182V383H200.294V313.182H217.169ZM299.663 313.182V383H285.345L257.561 342.705H257.118V383H240.243V313.182H254.766L282.243 353.409H282.822V313.182H299.663Z" fill="white"/>
<defs>
<linearGradient id="paint0_linear_2_6" x1="250" y1="0" x2="250" y2="433" gradientUnits="userSpaceOnUse">
<stop stop-color="#FF0000"/>
<stop offset="1" stop-color="#B00000"/>
</linearGradient>
</defs>
</svg>
