<svg width="433" height="433" viewBox="0 0 433 433" fill="none" xmlns="http://www.w3.org/2000/svg">
<circle cx="216.5" cy="216.5" r="216.5" fill="#593FF5"/>
<path d="M148.215 195V133.182H173.992C178.621 133.182 182.494 133.836 185.614 135.144C188.753 136.452 191.107 138.283 192.677 140.637C194.266 142.992 195.061 145.719 195.061 148.817C195.061 151.172 194.568 153.275 193.582 155.126C192.596 156.957 191.238 158.477 189.507 159.684C187.777 160.891 185.775 161.737 183.501 162.219V162.823C185.996 162.944 188.3 163.618 190.413 164.846C192.546 166.073 194.256 167.783 195.544 169.977C196.832 172.15 197.476 174.726 197.476 177.704C197.476 181.025 196.631 183.993 194.941 186.609C193.25 189.205 190.805 191.257 187.606 192.766C184.406 194.255 180.522 195 175.954 195H148.215ZM163.156 182.956H172.393C175.632 182.956 178.017 182.343 179.546 181.115C181.096 179.888 181.871 178.177 181.871 175.984C181.871 174.394 181.498 173.026 180.754 171.879C180.009 170.711 178.953 169.816 177.584 169.192C176.216 168.548 174.576 168.226 172.664 168.226H163.156V182.956ZM163.156 158.597H171.427C173.057 158.597 174.506 158.326 175.773 157.782C177.041 157.239 178.027 156.454 178.731 155.428C179.456 154.402 179.818 153.164 179.818 151.715C179.818 149.643 179.084 148.013 177.615 146.825C176.146 145.638 174.164 145.044 171.668 145.044H163.156V158.597ZM219.601 133.182V195H204.66V133.182H219.601ZM269.55 153.375C269.207 152.108 268.704 150.991 268.04 150.025C267.376 149.039 266.561 148.204 265.595 147.52C264.629 146.835 263.523 146.322 262.275 145.98C261.027 145.618 259.659 145.437 258.17 145.437C255.172 145.437 252.576 146.161 250.382 147.61C248.209 149.059 246.529 151.172 245.341 153.949C244.154 156.706 243.561 160.056 243.561 164C243.561 167.965 244.134 171.345 245.281 174.142C246.428 176.94 248.088 179.073 250.262 180.542C252.435 182.011 255.071 182.745 258.17 182.745C260.907 182.745 263.221 182.302 265.112 181.417C267.024 180.511 268.473 179.234 269.459 177.583C270.445 175.933 270.938 173.991 270.938 171.758L273.715 172.09H258.683V161.193H285.336V169.373C285.336 174.907 284.159 179.646 281.805 183.59C279.47 187.534 276.251 190.563 272.145 192.676C268.06 194.789 263.362 195.845 258.049 195.845C252.153 195.845 246.971 194.567 242.504 192.012C238.037 189.456 234.555 185.814 232.06 181.085C229.565 176.336 228.317 170.701 228.317 164.181C228.317 159.11 229.072 154.613 230.581 150.689C232.09 146.745 234.193 143.404 236.89 140.668C239.606 137.931 242.746 135.858 246.307 134.45C249.889 133.041 253.743 132.337 257.868 132.337C261.45 132.337 264.78 132.85 267.859 133.876C270.958 134.902 273.695 136.351 276.069 138.223C278.464 140.094 280.406 142.318 281.895 144.893C283.384 147.469 284.31 150.297 284.672 153.375H269.55ZM94.5502 298V236.182H120.328C124.956 236.182 128.83 236.836 131.949 238.144C135.088 239.452 137.443 241.283 139.012 243.637C140.602 245.992 141.397 248.719 141.397 251.817C141.397 254.172 140.904 256.275 139.918 258.126C138.932 259.957 137.573 261.477 135.843 262.684C134.112 263.891 132.11 264.737 129.836 265.219V265.823C132.331 265.944 134.635 266.618 136.748 267.846C138.881 269.073 140.592 270.783 141.88 272.977C143.168 275.15 143.812 277.726 143.812 280.704C143.812 284.025 142.966 286.993 141.276 289.609C139.586 292.205 137.141 294.257 133.941 295.766C130.742 297.255 126.858 298 122.29 298H94.5502ZM109.492 285.956H118.728C121.968 285.956 124.353 285.343 125.882 284.115C127.431 282.888 128.206 281.177 128.206 278.984C128.206 277.394 127.834 276.026 127.089 274.879C126.345 273.711 125.288 272.816 123.92 272.192C122.552 271.548 120.911 271.226 119 271.226H109.492V285.956ZM109.492 261.597H117.762C119.392 261.597 120.841 261.326 122.109 260.782C123.377 260.239 124.363 259.454 125.067 258.428C125.791 257.402 126.154 256.164 126.154 254.715C126.154 252.643 125.419 251.013 123.95 249.825C122.481 248.638 120.499 248.044 118.004 248.044H109.492V261.597ZM150.996 298V236.182H165.937V285.866H191.654V298H150.996ZM214.33 236.182V298H199.389V236.182H214.33ZM276.322 236.182V298H263.645L239.044 262.322H238.652V298H223.71V236.182H236.569L260.898 271.8H261.411V236.182H276.322ZM308.567 298H285.717V236.182H308.537C314.835 236.182 320.259 237.419 324.806 239.895C329.374 242.35 332.896 245.891 335.371 250.52C337.846 255.128 339.084 260.641 339.084 267.061C339.084 273.5 337.846 279.034 335.371 283.662C332.916 288.291 329.404 291.842 324.837 294.317C320.269 296.772 314.845 298 308.567 298ZM300.659 285.262H307.993C311.455 285.262 314.383 284.679 316.777 283.511C319.192 282.324 321.013 280.402 322.241 277.746C323.488 275.07 324.112 271.508 324.112 267.061C324.112 262.614 323.488 259.072 322.241 256.436C320.993 253.779 319.152 251.868 316.717 250.701C314.302 249.513 311.324 248.92 307.782 248.92H300.659V285.262Z" fill="white" fill-opacity="0.88"/>
</svg>
