<svg width="433" height="433" viewBox="0 0 433 433" fill="none" xmlns="http://www.w3.org/2000/svg">
<circle cx="216.5" cy="216.5" r="216.5" fill="#F4F4F4"/>
<path d="M75.398 247H52.5483V185.182H75.3679C81.6664 185.182 87.0896 186.419 91.6374 188.895C96.2053 191.35 99.7269 194.891 102.202 199.52C104.677 204.128 105.915 209.641 105.915 216.061C105.915 222.5 104.677 228.034 102.202 232.662C99.747 237.291 96.2355 240.842 91.6676 243.317C87.0996 245.772 81.6764 247 75.398 247ZM67.4897 234.262H74.8245C78.2857 234.262 81.2136 233.679 83.6083 232.511C86.023 231.324 87.8442 229.402 89.0717 226.746C90.3193 224.07 90.9431 220.508 90.9431 216.061C90.9431 211.614 90.3193 208.072 89.0717 205.436C87.8241 202.779 85.9828 200.868 83.5479 199.701C81.1331 198.513 78.1549 197.92 74.6132 197.92H67.4897V234.262ZM114.638 247V185.182H157.742V197.316H129.58V209.994H155.538V222.158H129.58V234.866H157.742V247H114.638ZM180.471 247H164.413L185.27 185.182H205.162L226.019 247H209.961L195.442 200.757H194.959L180.471 247ZM178.328 222.671H211.893V234.021H178.328V222.671ZM232.675 247V185.182H247.617V234.866H273.334V247H232.675ZM281.069 247V185.182H324.172V197.316H296.01V209.994H321.969V222.158H296.01V234.866H324.172V247H281.069ZM333.53 247V185.182H359.066C363.694 185.182 367.689 186.017 371.049 187.687C374.43 189.337 377.036 191.712 378.867 194.811C380.698 197.89 381.614 201.542 381.614 205.768C381.614 210.054 380.678 213.696 378.807 216.695C376.935 219.673 374.279 221.947 370.838 223.516C367.397 225.066 363.322 225.841 358.613 225.841H342.464V214.069H355.836C358.09 214.069 359.971 213.777 361.481 213.193C363.01 212.589 364.167 211.684 364.952 210.477C365.737 209.249 366.129 207.679 366.129 205.768C366.129 203.856 365.737 202.276 364.952 201.029C364.167 199.761 363.01 198.815 361.481 198.191C359.951 197.547 358.07 197.225 355.836 197.225H348.471V247H333.53ZM368.333 218.747L383.727 247H367.427L352.335 218.747H368.333Z" fill="#3F3F3F"/>
</svg>
