<svg width="433" height="433" viewBox="0 0 433 433" fill="none" xmlns="http://www.w3.org/2000/svg">
<circle cx="216.5" cy="216.5" r="216.5" fill="#F5D83F"/>
<path d="M106.134 151.715C105.932 149.502 105.037 147.781 103.447 146.554C101.878 145.306 99.6338 144.682 96.716 144.682C94.7841 144.682 93.1743 144.934 91.8864 145.437C90.5985 145.94 89.6326 146.634 88.9887 147.52C88.3447 148.385 88.0127 149.381 87.9926 150.508C87.9523 151.433 88.1334 152.248 88.5359 152.953C88.9585 153.657 89.5622 154.281 90.347 154.824C91.1519 155.347 92.1178 155.81 93.2447 156.213C94.3716 156.615 95.6394 156.967 97.048 157.269L102.36 158.477C105.419 159.141 108.116 160.026 110.45 161.133C112.804 162.24 114.776 163.558 116.366 165.087C117.976 166.616 119.193 168.377 120.019 170.369C120.844 172.362 121.266 174.595 121.286 177.07C121.266 180.974 120.28 184.325 118.328 187.122C116.376 189.919 113.569 192.062 109.907 193.551C106.264 195.04 101.867 195.785 96.716 195.785C91.5443 195.785 87.0367 195.01 83.1932 193.461C79.3497 191.911 76.3614 189.557 74.2284 186.397C72.0953 183.238 70.9986 179.244 70.9383 174.414H85.2458C85.3665 176.406 85.8998 178.066 86.8456 179.395C87.7914 180.723 89.0893 181.729 90.7394 182.413C92.4096 183.097 94.3414 183.439 96.5348 183.439C98.5472 183.439 100.258 183.168 101.666 182.624C103.095 182.081 104.192 181.326 104.956 180.36C105.721 179.395 106.113 178.288 106.134 177.04C106.113 175.873 105.751 174.877 105.047 174.052C104.343 173.207 103.256 172.482 101.787 171.879C100.338 171.255 98.4868 170.681 96.233 170.158L89.7735 168.649C84.4207 167.421 80.2049 165.439 77.1261 162.702C74.0473 159.946 72.5179 156.223 72.538 151.534C72.5179 147.711 73.5442 144.36 75.6169 141.483C77.6896 138.605 80.5571 136.361 84.2195 134.751C87.8819 133.142 92.0575 132.337 96.7461 132.337C101.535 132.337 105.691 133.152 109.212 134.782C112.754 136.391 115.501 138.655 117.453 141.573C119.405 144.491 120.401 147.872 120.441 151.715H106.134ZM128.832 133.182H147.336L163.032 171.456H163.756L179.452 133.182H197.955V195H183.406V157.028H182.893L168.042 194.608H158.745L143.895 156.816H143.381V195H128.832V133.182ZM220.647 195H204.588L225.446 133.182H245.338L266.195 195H250.137L235.618 148.757H235.135L220.647 195ZM218.504 170.671H252.069V182.021H218.504V170.671ZM272.851 195V133.182H287.792V182.866H313.51V195H272.851ZM321.245 195V133.182H336.186V182.866H361.903V195H321.245ZM94.5502 298V236.182H120.328C124.956 236.182 128.83 236.836 131.949 238.144C135.088 239.452 137.443 241.283 139.012 243.637C140.602 245.992 141.397 248.719 141.397 251.817C141.397 254.172 140.904 256.275 139.918 258.126C138.932 259.957 137.573 261.477 135.843 262.684C134.112 263.891 132.11 264.737 129.836 265.219V265.823C132.331 265.944 134.635 266.618 136.748 267.846C138.881 269.073 140.592 270.783 141.88 272.977C143.168 275.15 143.812 277.726 143.812 280.704C143.812 284.025 142.966 286.993 141.276 289.609C139.586 292.205 137.141 294.257 133.941 295.766C130.742 297.255 126.858 298 122.29 298H94.5502ZM109.492 285.956H118.728C121.968 285.956 124.353 285.343 125.882 284.115C127.431 282.888 128.206 281.177 128.206 278.984C128.206 277.394 127.834 276.026 127.089 274.879C126.345 273.711 125.288 272.816 123.92 272.192C122.552 271.548 120.911 271.226 119 271.226H109.492V285.956ZM109.492 261.597H117.762C119.392 261.597 120.841 261.326 122.109 260.782C123.377 260.239 124.363 259.454 125.067 258.428C125.791 257.402 126.154 256.164 126.154 254.715C126.154 252.643 125.419 251.013 123.95 249.825C122.481 248.638 120.499 248.044 118.004 248.044H109.492V261.597ZM150.996 298V236.182H165.937V285.866H191.654V298H150.996ZM214.33 236.182V298H199.389V236.182H214.33ZM276.322 236.182V298H263.645L239.044 262.322H238.652V298H223.71V236.182H236.569L260.898 271.8H261.411V236.182H276.322ZM308.567 298H285.717V236.182H308.537C314.835 236.182 320.259 237.419 324.806 239.895C329.374 242.35 332.896 245.891 335.371 250.52C337.846 255.128 339.084 260.641 339.084 267.061C339.084 273.5 337.846 279.034 335.371 283.662C332.916 288.291 329.404 291.842 324.837 294.317C320.269 296.772 314.845 298 308.567 298ZM300.659 285.262H307.993C311.455 285.262 314.383 284.679 316.777 283.511C319.192 282.324 321.013 280.402 322.241 277.746C323.488 275.07 324.112 271.508 324.112 267.061C324.112 262.614 323.488 259.072 322.241 256.436C320.993 253.779 319.152 251.868 316.717 250.701C314.302 249.513 311.324 248.92 307.782 248.92H300.659V285.262Z" fill="black" fill-opacity="0.73"/>
</svg>
